<?xml version="1.0" encoding="UTF-8"?><svg id="Layer_1" xmlns="http://www.w3.org/2000/svg" viewBox="0 0 1024 1024"><defs><style>.cls-1{fill:#003d96;}.cls-2{fill:#fff;}</style></defs><rect class="cls-1" width="1024" height="1024"/><path class="cls-2" d="m423.6,758.27c-14.91-4.56-55.19-6.91-87.79-17.03-7.74-1.82-15.58-4.33-23.41-7.22l41.47,146.64h99.04c7.88-5.07,15.31-11.09,22.05-18.63,35.14-42.15-2.78-93.52-51.35-103.77Z"/><path class="cls-2" d="m711.62,222.71H167.79l70.48,249.21c49.55-40.07,125.4-51.31,186.7-32.86,29.22,7.31,67.15,24.23,99.93,25.1,37.84,1.75,22.85,41.72,22.85,41.72,35.67-15.25,36.19-40.36,25.87-67.4,0,0-.14.06-.17.08-5.08-15.32-16.74-27.05,1-55.07,17.28-27.31,36.61-15.62,58.09-48.87,10.78-16.69,34.05-50.54,63.1-36.59,28.29,13.59,13.56,57.3,8.59,79.61-8.61,38.64,12.69,42.89,3.88,73.98-12.68,44.75-40.13,24.76-56.81,51.35l-.09-.05c-23.02,33.32-53.89,58.07-106.62,58.99-48.03,1.48-90.33-11.23-134.5-24.28-13.7-3.89-28.46-6.69-42.54-7.13-30.17-2.96-75.52,12.26-77.17,44.5,3.42,44.74,69.14,59.73,109.96,63.5,14.58,1.4,35.39,3.05,49.59,6.44,113.89,20.57,186.64,132.56,153.75,235.74h78.82l173.74-657.95h-144.59Z"/></svg>