<?xml version="1.0" encoding="UTF-8"?><svg id="Layer_1" xmlns="http://www.w3.org/2000/svg" viewBox="0 0 1024 1024"><defs><style>.cls-1{fill:#003d96;}.cls-2{fill:#fff;}</style></defs><rect class="cls-1" x="0" y="0" width="1024" height="1024"/><path class="cls-2" d="m427.4,770.66c-14.45-4.42-53.49-6.7-85.08-16.5-7.5-1.77-15.1-4.19-22.69-7l40.19,142.11h95.98c7.64-4.91,14.84-10.74,21.37-18.05,34.06-40.85-2.69-90.63-49.77-100.57Z"/><path class="cls-2" d="m706.52,251.64H179.48l68.31,241.52c48.02-38.83,121.53-49.73,180.93-31.85,28.32,7.08,65.08,23.48,96.84,24.32,36.67,1.7,22.15,40.44,22.15,40.44,34.57-14.78,35.07-39.11,25.07-65.32,0,0-.14.06-.17.07-4.92-14.85-16.22-26.21.97-53.37,16.75-26.46,35.48-15.13,56.3-47.36,10.45-16.18,33-48.98,61.16-35.46,27.42,13.17,13.14,55.53,8.32,77.15-8.34,37.45,12.29,41.56,3.76,71.69-12.29,43.37-38.9,24-55.06,49.76l-.09-.05c-22.31,32.29-52.23,56.28-103.33,57.17-46.54,1.44-87.54-10.88-130.35-23.53-13.28-3.77-27.58-6.49-41.23-6.91-29.24-2.86-73.19,11.88-74.79,43.12,3.31,43.36,67.01,57.88,106.56,61.54,14.13,1.35,34.29,2.96,48.06,6.24,110.37,19.93,180.88,128.47,149,228.46h76.39l168.38-637.64h-140.13Z"/></svg>